<mxfile host="app.diagrams.net" modified="2024-04-23T00:32:24.212Z" agent="Mozilla/5.0 (Linux; Android 10; K) AppleWebKit/537.36 (KHTML, like Gecko) Chrome/123.0.0.0 Mobile Safari/537.36" version="24.2.5" etag="bqylM8nw9jGU3eHoJGfY" type="github">
  <diagram name="Page-1" id="paNt28wmFn2jA_todCUv">
    <mxGraphModel>
      <root>
        <mxCell id="0" />
        <mxCell id="1" parent="0" />
      </root>
    </mxGraphModel>
  </diagram>
</mxfile>
